<mxfile host="app.diagrams.net" modified="2021-04-10T05:55:28.910Z" agent="5.0 (Macintosh; Intel Mac OS X 10_15_4) AppleWebKit/605.1.15 (KHTML, like Gecko) Version/13.1 Safari/605.1.15" etag="R4QZ14GW13QYMHRKIjpj" version="14.5.1" type="github">
  <diagram id="En9NG8h2TXa8EG95vZdM" name="Page-1">
    <mxGraphModel dx="946" dy="559" grid="1" gridSize="10" guides="1" tooltips="1" connect="1" arrows="1" fold="1" page="1" pageScale="1" pageWidth="827" pageHeight="1169" math="0" shadow="0">
      <root>
        <mxCell id="0" />
        <mxCell id="1" parent="0" />
        <mxCell id="v1Cm1RiDaVpm4p61wSiM-4" style="edgeStyle=orthogonalEdgeStyle;shape=flexArrow;rounded=0;orthogonalLoop=1;jettySize=auto;html=1;exitX=0.5;exitY=0;exitDx=0;exitDy=0;entryX=0.432;entryY=1.025;entryDx=0;entryDy=0;entryPerimeter=0;fontFamily=Courier New;fontSize=12;" edge="1" parent="1" source="v1Cm1RiDaVpm4p61wSiM-6" target="v1Cm1RiDaVpm4p61wSiM-57">
          <mxGeometry relative="1" as="geometry" />
        </mxCell>
        <mxCell id="v1Cm1RiDaVpm4p61wSiM-5" style="edgeStyle=orthogonalEdgeStyle;shape=flexArrow;rounded=0;orthogonalLoop=1;jettySize=auto;html=1;exitX=0;exitY=0.75;exitDx=0;exitDy=0;entryX=0;entryY=0.25;entryDx=0;entryDy=0;fontFamily=Courier New;fontSize=12;fillColor=#ffff88;strokeColor=#36393d;" edge="1" parent="1" source="v1Cm1RiDaVpm4p61wSiM-6" target="v1Cm1RiDaVpm4p61wSiM-45">
          <mxGeometry relative="1" as="geometry">
            <Array as="points">
              <mxPoint x="1360" y="1491.5" />
              <mxPoint x="1360" y="2351.5" />
            </Array>
          </mxGeometry>
        </mxCell>
        <mxCell id="v1Cm1RiDaVpm4p61wSiM-6" value="PeerConnectionProxy" style="rounded=0;whiteSpace=wrap;html=1;fontFamily=Courier New;fontSize=12;verticalAlign=top;" vertex="1" parent="1">
          <mxGeometry x="1576" y="1146" width="370" height="460" as="geometry" />
        </mxCell>
        <mxCell id="v1Cm1RiDaVpm4p61wSiM-11" style="edgeStyle=orthogonalEdgeStyle;shape=flexArrow;rounded=0;orthogonalLoop=1;jettySize=auto;html=1;fontFamily=Courier New;fontSize=12;entryX=0.5;entryY=1;entryDx=0;entryDy=0;fillColor=#cce5ff;strokeColor=#36393d;" edge="1" parent="1" source="v1Cm1RiDaVpm4p61wSiM-12" target="v1Cm1RiDaVpm4p61wSiM-35">
          <mxGeometry relative="1" as="geometry">
            <mxPoint x="510" y="969.5" as="targetPoint" />
          </mxGeometry>
        </mxCell>
        <mxCell id="v1Cm1RiDaVpm4p61wSiM-12" value="&lt;span&gt;VideoTrackProxy&lt;/span&gt;" style="rounded=0;whiteSpace=wrap;html=1;fontFamily=Courier New;fontSize=12;verticalAlign=top;" vertex="1" parent="1">
          <mxGeometry x="372.5" y="1111.5" width="285" height="168" as="geometry" />
        </mxCell>
        <mxCell id="v1Cm1RiDaVpm4p61wSiM-27" value="" style="endArrow=none;html=1;fontFamily=Courier New;fontSize=12;" edge="1" parent="1">
          <mxGeometry width="50" height="50" relative="1" as="geometry">
            <mxPoint x="215" y="1019.5" as="sourcePoint" />
            <mxPoint x="2245" y="1019.5" as="targetPoint" />
          </mxGeometry>
        </mxCell>
        <mxCell id="v1Cm1RiDaVpm4p61wSiM-28" value="Object-c" style="text;html=1;strokeColor=#b85450;fillColor=#f8cecc;align=center;verticalAlign=middle;whiteSpace=wrap;rounded=0;fontFamily=Courier New;fontSize=12;" vertex="1" parent="1">
          <mxGeometry x="205" y="910" width="70" height="20" as="geometry" />
        </mxCell>
        <mxCell id="v1Cm1RiDaVpm4p61wSiM-29" value="C++" style="text;html=1;strokeColor=#b85450;fillColor=#f8cecc;align=center;verticalAlign=middle;whiteSpace=wrap;rounded=0;fontFamily=Courier New;fontSize=12;" vertex="1" parent="1">
          <mxGeometry x="205" y="1143.5" width="70" height="20" as="geometry" />
        </mxCell>
        <mxCell id="v1Cm1RiDaVpm4p61wSiM-32" style="edgeStyle=orthogonalEdgeStyle;shape=flexArrow;rounded=0;orthogonalLoop=1;jettySize=auto;html=1;exitX=1;exitY=0.5;exitDx=0;exitDy=0;entryX=0;entryY=0.5;entryDx=0;entryDy=0;fontFamily=Courier New;fontSize=12;fillColor=#ffff88;strokeColor=#36393d;" edge="1" parent="1" source="v1Cm1RiDaVpm4p61wSiM-33" target="v1Cm1RiDaVpm4p61wSiM-72">
          <mxGeometry relative="1" as="geometry" />
        </mxCell>
        <mxCell id="v1Cm1RiDaVpm4p61wSiM-33" value="&lt;span&gt;VideoTrack&lt;/span&gt;" style="rounded=0;whiteSpace=wrap;html=1;fontFamily=Courier New;fontSize=12;verticalAlign=top;" vertex="1" parent="1">
          <mxGeometry x="418.5" y="1143.5" width="200" height="91" as="geometry" />
        </mxCell>
        <mxCell id="v1Cm1RiDaVpm4p61wSiM-34" style="edgeStyle=orthogonalEdgeStyle;shape=flexArrow;rounded=0;orthogonalLoop=1;jettySize=auto;html=1;fontFamily=Courier New;fontSize=12;fillColor=#ffff88;strokeColor=#36393d;entryX=-0.011;entryY=0.456;entryDx=0;entryDy=0;entryPerimeter=0;" edge="1" parent="1" source="v1Cm1RiDaVpm4p61wSiM-35" target="v1Cm1RiDaVpm4p61wSiM-57">
          <mxGeometry relative="1" as="geometry">
            <mxPoint x="1330" y="890.5" as="targetPoint" />
          </mxGeometry>
        </mxCell>
        <mxCell id="v1Cm1RiDaVpm4p61wSiM-35" value="&lt;span&gt;RTCVideoTrack&lt;/span&gt;" style="rounded=0;whiteSpace=wrap;html=1;fontFamily=Courier New;fontSize=12;verticalAlign=top;" vertex="1" parent="1">
          <mxGeometry x="350" y="813" width="330" height="140" as="geometry" />
        </mxCell>
        <mxCell id="v1Cm1RiDaVpm4p61wSiM-36" value="&lt;span&gt;RTCVideoSource&lt;br&gt;&lt;/span&gt;" style="rounded=0;whiteSpace=wrap;html=1;fontFamily=Courier New;fontSize=12;" vertex="1" parent="1">
          <mxGeometry x="450" y="849.5" width="120" height="30" as="geometry" />
        </mxCell>
        <mxCell id="v1Cm1RiDaVpm4p61wSiM-38" value="VideoTrackInterface nativeVideoTrack&lt;span&gt;&lt;br&gt;&lt;/span&gt;" style="rounded=0;whiteSpace=wrap;html=1;fontFamily=Courier New;fontSize=12;" vertex="1" parent="1">
          <mxGeometry x="400" y="888.5" width="250" height="51" as="geometry" />
        </mxCell>
        <mxCell id="v1Cm1RiDaVpm4p61wSiM-39" value="把nativevideotrack保存在RTCVideoTrack" style="text;html=1;strokeColor=#6c8ebf;fillColor=#dae8fc;align=center;verticalAlign=middle;whiteSpace=wrap;rounded=0;fontFamily=Courier New;fontSize=12;" vertex="1" parent="1">
          <mxGeometry x="490" y="1026.5" width="160" height="40" as="geometry" />
        </mxCell>
        <mxCell id="v1Cm1RiDaVpm4p61wSiM-40" value="RTCVideoTrack继承 RTCMediaStreamTrack" style="text;html=1;strokeColor=#9673a6;fillColor=#e1d5e7;align=center;verticalAlign=middle;whiteSpace=wrap;rounded=0;fontFamily=Courier New;fontSize=12;" vertex="1" parent="1">
          <mxGeometry x="475" y="712.5" width="190" height="80" as="geometry" />
        </mxCell>
        <mxCell id="v1Cm1RiDaVpm4p61wSiM-41" value="1.VideoTrack继承&amp;nbsp;&lt;br&gt;MediaStreamTrack&amp;lt;VideoTrackInterface&amp;gt;，&lt;br&gt;VideoSourceBase，&lt;br&gt;ObserverInterface；&lt;br&gt;2.&amp;nbsp;MediaStreamTrack&amp;nbsp;继承&lt;br&gt;Notifier&amp;lt;T&amp;gt;&lt;br&gt;3.&amp;nbsp;Notifier 继承T,T就是VideoTrackInterface&lt;br&gt;4.&amp;nbsp;VideoSourceBase继承VideoSourceInterface" style="text;html=1;strokeColor=#9673a6;fillColor=#e1d5e7;align=left;verticalAlign=middle;whiteSpace=wrap;rounded=0;fontFamily=Courier New;fontSize=12;" vertex="1" parent="1">
          <mxGeometry x="376.6300000000001" y="1319.5" width="320" height="170" as="geometry" />
        </mxCell>
        <mxCell id="v1Cm1RiDaVpm4p61wSiM-43" style="edgeStyle=orthogonalEdgeStyle;shape=flexArrow;rounded=0;orthogonalLoop=1;jettySize=auto;html=1;entryX=0.809;entryY=-0.002;entryDx=0;entryDy=0;fontFamily=Courier New;fontSize=12;fillColor=#ffff88;strokeColor=#36393d;exitX=0.5;exitY=1;exitDx=0;exitDy=0;entryPerimeter=0;" edge="1" parent="1" source="v1Cm1RiDaVpm4p61wSiM-45" target="v1Cm1RiDaVpm4p61wSiM-112">
          <mxGeometry relative="1" as="geometry">
            <Array as="points">
              <mxPoint x="1746" y="2999.5" />
            </Array>
          </mxGeometry>
        </mxCell>
        <mxCell id="v1Cm1RiDaVpm4p61wSiM-44" style="edgeStyle=orthogonalEdgeStyle;shape=flexArrow;rounded=0;orthogonalLoop=1;jettySize=auto;html=1;exitX=0;exitY=0.75;exitDx=0;exitDy=0;entryX=1;entryY=0.5;entryDx=0;entryDy=0;fontFamily=Courier New;fontSize=12;fillColor=#ffff88;strokeColor=#36393d;" edge="1" parent="1" source="v1Cm1RiDaVpm4p61wSiM-45" target="v1Cm1RiDaVpm4p61wSiM-108">
          <mxGeometry relative="1" as="geometry" />
        </mxCell>
        <mxCell id="v1Cm1RiDaVpm4p61wSiM-146" style="edgeStyle=orthogonalEdgeStyle;shape=flexArrow;rounded=0;orthogonalLoop=1;jettySize=auto;html=1;exitX=0.25;exitY=1;exitDx=0;exitDy=0;entryX=0.951;entryY=0;entryDx=0;entryDy=0;entryPerimeter=0;fillColor=#ffff88;strokeColor=#36393d;" edge="1" parent="1" source="v1Cm1RiDaVpm4p61wSiM-45" target="v1Cm1RiDaVpm4p61wSiM-115">
          <mxGeometry relative="1" as="geometry" />
        </mxCell>
        <mxCell id="v1Cm1RiDaVpm4p61wSiM-45" value="&lt;pre&gt;&lt;b&gt;RtpTransmissionManager&lt;/b&gt;&lt;/pre&gt;" style="whiteSpace=wrap;html=1;verticalAlign=top;fillColor=#ffe6cc;strokeColor=#d79b00;horizontal=1;" vertex="1" parent="1">
          <mxGeometry x="1576" y="2299.5" width="340" height="210" as="geometry" />
        </mxCell>
        <mxCell id="v1Cm1RiDaVpm4p61wSiM-57" value="RTCPeerConnection" style="rounded=0;whiteSpace=wrap;html=1;fontFamily=Courier New;fontSize=12;verticalAlign=top;" vertex="1" parent="1">
          <mxGeometry x="1618" y="809" width="330" height="160" as="geometry" />
        </mxCell>
        <mxCell id="v1Cm1RiDaVpm4p61wSiM-72" value="&lt;span&gt;PeerConnection&lt;/span&gt;" style="rounded=0;whiteSpace=wrap;html=1;fontFamily=Courier New;fontSize=12;align=center;verticalAlign=top;" vertex="1" parent="1">
          <mxGeometry x="1590" y="1176" width="340" height="400" as="geometry" />
        </mxCell>
        <mxCell id="v1Cm1RiDaVpm4p61wSiM-79" style="edgeStyle=orthogonalEdgeStyle;shape=flexArrow;rounded=0;orthogonalLoop=1;jettySize=auto;html=1;entryX=0.356;entryY=0;entryDx=0;entryDy=0;entryPerimeter=0;fontFamily=Courier New;fontSize=12;" edge="1" parent="1" source="v1Cm1RiDaVpm4p61wSiM-81" target="v1Cm1RiDaVpm4p61wSiM-57">
          <mxGeometry relative="1" as="geometry" />
        </mxCell>
        <mxCell id="v1Cm1RiDaVpm4p61wSiM-80" style="edgeStyle=orthogonalEdgeStyle;shape=flexArrow;rounded=0;orthogonalLoop=1;jettySize=auto;html=1;exitX=0;exitY=0.5;exitDx=0;exitDy=0;entryX=0.25;entryY=0;entryDx=0;entryDy=0;fontFamily=Courier New;fontSize=12;" edge="1" parent="1" source="v1Cm1RiDaVpm4p61wSiM-81" target="v1Cm1RiDaVpm4p61wSiM-83">
          <mxGeometry relative="1" as="geometry">
            <Array as="points">
              <mxPoint x="1478" y="675.5" />
            </Array>
          </mxGeometry>
        </mxCell>
        <mxCell id="v1Cm1RiDaVpm4p61wSiM-81" value="RTCConfiguration" style="rounded=0;whiteSpace=wrap;html=1;fontFamily=Courier New;fontSize=12;align=center;" vertex="1" parent="1">
          <mxGeometry x="1487" y="640" width="250" height="70" as="geometry" />
        </mxCell>
        <mxCell id="v1Cm1RiDaVpm4p61wSiM-82" style="edgeStyle=orthogonalEdgeStyle;shape=flexArrow;rounded=0;orthogonalLoop=1;jettySize=auto;html=1;exitX=0.5;exitY=0;exitDx=0;exitDy=0;entryX=0.25;entryY=1;entryDx=0;entryDy=0;fontFamily=Courier New;fontSize=12;" edge="1" parent="1" source="v1Cm1RiDaVpm4p61wSiM-83" target="v1Cm1RiDaVpm4p61wSiM-6">
          <mxGeometry relative="1" as="geometry" />
        </mxCell>
        <mxCell id="v1Cm1RiDaVpm4p61wSiM-83" value="PeerConnectionInterface::RTCConfiguration" style="rounded=0;whiteSpace=wrap;html=1;fontFamily=Courier New;fontSize=12;align=center;" vertex="1" parent="1">
          <mxGeometry x="1400" y="1773.5" width="310" height="90" as="geometry" />
        </mxCell>
        <mxCell id="v1Cm1RiDaVpm4p61wSiM-84" style="edgeStyle=orthogonalEdgeStyle;shape=flexArrow;rounded=0;orthogonalLoop=1;jettySize=auto;html=1;fontFamily=Courier New;fontSize=12;" edge="1" parent="1" source="v1Cm1RiDaVpm4p61wSiM-85" target="v1Cm1RiDaVpm4p61wSiM-83">
          <mxGeometry relative="1" as="geometry" />
        </mxCell>
        <mxCell id="v1Cm1RiDaVpm4p61wSiM-85" value="&lt;span&gt;MediaConstraints&amp;nbsp;&lt;/span&gt;" style="rounded=0;whiteSpace=wrap;html=1;fontFamily=Courier New;fontSize=12;align=center;" vertex="1" parent="1">
          <mxGeometry x="1994" y="1803.5" width="170" height="30" as="geometry" />
        </mxCell>
        <mxCell id="v1Cm1RiDaVpm4p61wSiM-86" style="edgeStyle=orthogonalEdgeStyle;shape=flexArrow;rounded=0;orthogonalLoop=1;jettySize=auto;html=1;entryX=0.75;entryY=1;entryDx=0;entryDy=0;fontFamily=Courier New;fontSize=12;" edge="1" parent="1" source="v1Cm1RiDaVpm4p61wSiM-87" target="v1Cm1RiDaVpm4p61wSiM-72">
          <mxGeometry relative="1" as="geometry" />
        </mxCell>
        <mxCell id="v1Cm1RiDaVpm4p61wSiM-87" value="PeerConnectionPendencies" style="rounded=0;whiteSpace=wrap;html=1;fontFamily=Courier New;fontSize=12;align=center;" vertex="1" parent="1">
          <mxGeometry x="1842" y="1976.5" width="230" height="60" as="geometry" />
        </mxCell>
        <mxCell id="v1Cm1RiDaVpm4p61wSiM-88" value="&lt;span&gt;MediaConstraints nativeConstraints&lt;/span&gt;" style="rounded=0;whiteSpace=wrap;html=1;fontFamily=Courier New;fontSize=12;align=center;" vertex="1" parent="1">
          <mxGeometry x="1683.5" y="839" width="170" height="30" as="geometry" />
        </mxCell>
        <mxCell id="v1Cm1RiDaVpm4p61wSiM-89" value="把MediaConstraints相关信息存入RTCConfiguration" style="text;html=1;strokeColor=#6c8ebf;fillColor=#dae8fc;align=center;verticalAlign=middle;whiteSpace=wrap;rounded=0;fontFamily=Courier New;fontSize=12;" vertex="1" parent="1">
          <mxGeometry x="1770" y="1814.5" width="160" height="40" as="geometry" />
        </mxCell>
        <mxCell id="v1Cm1RiDaVpm4p61wSiM-90" value="&lt;span&gt;PeerConnectionFactory _factory&lt;/span&gt;" style="rounded=0;whiteSpace=wrap;html=1;fontFamily=Courier New;fontSize=12;align=center;" vertex="1" parent="1">
          <mxGeometry x="1610" y="1199.75" width="250" height="36.25" as="geometry" />
        </mxCell>
        <mxCell id="v1Cm1RiDaVpm4p61wSiM-91" value="PeerConntionDelegateAdapter" style="rounded=0;whiteSpace=wrap;html=1;fontFamily=Courier New;fontSize=12;align=center;" vertex="1" parent="1">
          <mxGeometry x="1664" y="881.5" width="220" height="28.5" as="geometry" />
        </mxCell>
        <mxCell id="v1Cm1RiDaVpm4p61wSiM-92" value="&lt;span&gt;PeerConnection _peerConnection&lt;/span&gt;" style="rounded=0;whiteSpace=wrap;html=1;fontFamily=Courier New;fontSize=12;align=center;" vertex="1" parent="1">
          <mxGeometry x="1664" y="920" width="240" height="40" as="geometry" />
        </mxCell>
        <mxCell id="v1Cm1RiDaVpm4p61wSiM-93" value="RTCConfiguration转换PeerConnectionInterface::&lt;br&gt;RTCConfiguration" style="text;html=1;strokeColor=#6c8ebf;fillColor=#dae8fc;align=center;verticalAlign=middle;whiteSpace=wrap;rounded=0;fontFamily=Courier New;fontSize=12;" vertex="1" parent="1">
          <mxGeometry x="1431" y="1606" width="187" height="59" as="geometry" />
        </mxCell>
        <mxCell id="v1Cm1RiDaVpm4p61wSiM-94" value="Config传入PeerCoonnection中" style="text;html=1;strokeColor=#6c8ebf;fillColor=#dae8fc;align=center;verticalAlign=middle;whiteSpace=wrap;rounded=0;fontFamily=Courier New;fontSize=12;" vertex="1" parent="1">
          <mxGeometry x="1610" y="1679.5" width="170" height="40" as="geometry" />
        </mxCell>
        <mxCell id="v1Cm1RiDaVpm4p61wSiM-95" value="传入，并在PeerCoonnection&lt;br&gt;中赋值属性" style="text;html=1;strokeColor=#6c8ebf;fillColor=#dae8fc;align=center;verticalAlign=middle;whiteSpace=wrap;rounded=0;fontFamily=Courier New;fontSize=12;" vertex="1" parent="1">
          <mxGeometry x="1814" y="1669.5" width="163.5" height="50" as="geometry" />
        </mxCell>
        <mxCell id="v1Cm1RiDaVpm4p61wSiM-96" value="SdpOfferAnswerHandler sdp_handler_" style="rounded=0;whiteSpace=wrap;html=1;fontFamily=Courier New;fontSize=12;align=center;" vertex="1" parent="1">
          <mxGeometry x="1610" y="1255" width="290.5" height="31" as="geometry" />
        </mxCell>
        <mxCell id="v1Cm1RiDaVpm4p61wSiM-142" style="edgeStyle=orthogonalEdgeStyle;rounded=0;orthogonalLoop=1;jettySize=auto;html=1;exitX=1;exitY=0.5;exitDx=0;exitDy=0;" edge="1" parent="1" source="v1Cm1RiDaVpm4p61wSiM-97" target="v1Cm1RiDaVpm4p61wSiM-140">
          <mxGeometry relative="1" as="geometry" />
        </mxCell>
        <mxCell id="v1Cm1RiDaVpm4p61wSiM-97" value="&lt;pre&gt;&lt;b&gt;RtpTransmissionManager rtp_manager_&lt;/b&gt;&lt;/pre&gt;" style="rounded=0;whiteSpace=wrap;html=1;fontFamily=Courier New;fontSize=12;align=center;" vertex="1" parent="1">
          <mxGeometry x="1610" y="1306" width="310" height="30" as="geometry" />
        </mxCell>
        <mxCell id="v1Cm1RiDaVpm4p61wSiM-98" style="edgeStyle=orthogonalEdgeStyle;shape=flexArrow;rounded=0;orthogonalLoop=1;jettySize=auto;html=1;entryX=0.5;entryY=1;entryDx=0;entryDy=0;fontFamily=Courier New;fontSize=12;" edge="1" parent="1" source="v1Cm1RiDaVpm4p61wSiM-99" target="v1Cm1RiDaVpm4p61wSiM-87">
          <mxGeometry relative="1" as="geometry" />
        </mxCell>
        <mxCell id="v1Cm1RiDaVpm4p61wSiM-99" value="PeerConnectionDelegateAdapter" style="rounded=0;whiteSpace=wrap;html=1;fontFamily=Courier New;fontSize=12;align=center;" vertex="1" parent="1">
          <mxGeometry x="1838" y="2144.5" width="240" height="60" as="geometry" />
        </mxCell>
        <mxCell id="v1Cm1RiDaVpm4p61wSiM-100" value="存储observer" style="text;html=1;strokeColor=#6c8ebf;fillColor=#dae8fc;align=center;verticalAlign=middle;whiteSpace=wrap;rounded=0;fontFamily=Courier New;fontSize=12;" vertex="1" parent="1">
          <mxGeometry x="1930" y="2089.5" width="110" height="20" as="geometry" />
        </mxCell>
        <mxCell id="v1Cm1RiDaVpm4p61wSiM-102" value="把nativePeerConnectino保存在RTCPeerConnection" style="text;html=1;strokeColor=#6c8ebf;fillColor=#dae8fc;align=center;verticalAlign=middle;whiteSpace=wrap;rounded=0;fontFamily=Courier New;fontSize=12;" vertex="1" parent="1">
          <mxGeometry x="1618" y="1049.5" width="180" height="43" as="geometry" />
        </mxCell>
        <mxCell id="v1Cm1RiDaVpm4p61wSiM-103" value="1.addTrack" style="text;html=1;strokeColor=#36393d;fillColor=#ffff88;align=center;verticalAlign=middle;whiteSpace=wrap;rounded=0;fontFamily=Courier New;fontSize=12;" vertex="1" parent="1">
          <mxGeometry x="1050" y="861.5" width="80" height="20" as="geometry" />
        </mxCell>
        <mxCell id="v1Cm1RiDaVpm4p61wSiM-104" value="2.addTrack" style="text;html=1;strokeColor=#36393d;fillColor=#ffff88;align=center;verticalAlign=middle;whiteSpace=wrap;rounded=0;fontFamily=Courier New;fontSize=12;" vertex="1" parent="1">
          <mxGeometry x="980" y="1169.5" width="80" height="20" as="geometry" />
        </mxCell>
        <mxCell id="v1Cm1RiDaVpm4p61wSiM-105" value="3.addTrack" style="text;html=1;strokeColor=#36393d;fillColor=#ffff88;align=center;verticalAlign=middle;whiteSpace=wrap;rounded=0;fontFamily=Courier New;fontSize=12;" vertex="1" parent="1">
          <mxGeometry x="1330" y="1469.5" width="80" height="20" as="geometry" />
        </mxCell>
        <mxCell id="v1Cm1RiDaVpm4p61wSiM-106" style="edgeStyle=orthogonalEdgeStyle;shape=flexArrow;rounded=0;orthogonalLoop=1;jettySize=auto;html=1;entryX=1;entryY=0.25;entryDx=0;entryDy=0;fontFamily=Courier New;fontSize=12;fillColor=#ffff88;strokeColor=#36393d;" edge="1" parent="1" source="v1Cm1RiDaVpm4p61wSiM-108" target="v1Cm1RiDaVpm4p61wSiM-115">
          <mxGeometry relative="1" as="geometry" />
        </mxCell>
        <mxCell id="v1Cm1RiDaVpm4p61wSiM-108" value="RtpSenderProxyWithInternal&amp;lt;RtpSenderInternal&amp;gt;" style="rounded=0;whiteSpace=wrap;html=1;fontFamily=Courier New;fontSize=12;align=center;verticalAlign=top;" vertex="1" parent="1">
          <mxGeometry x="997.5" y="2406.5" width="345" height="220" as="geometry" />
        </mxCell>
        <mxCell id="v1Cm1RiDaVpm4p61wSiM-109" value="4.CreateSender&lt;br&gt;通过SetTrack 把 Track 存入RtpSender" style="text;html=1;strokeColor=#36393d;fillColor=#ffff88;align=center;verticalAlign=middle;whiteSpace=wrap;rounded=0;fontFamily=Courier New;fontSize=12;" vertex="1" parent="1">
          <mxGeometry x="1375" y="2464.5" width="145" height="45" as="geometry" />
        </mxCell>
        <mxCell id="v1Cm1RiDaVpm4p61wSiM-110" value="VideoRtpSender" style="rounded=0;whiteSpace=wrap;html=1;fontFamily=Courier New;fontSize=12;align=center;" vertex="1" parent="1">
          <mxGeometry x="1070" y="2443.5" width="120" height="60" as="geometry" />
        </mxCell>
        <mxCell id="v1Cm1RiDaVpm4p61wSiM-111" style="edgeStyle=orthogonalEdgeStyle;shape=flexArrow;rounded=0;orthogonalLoop=1;jettySize=auto;html=1;entryX=1;entryY=0.5;entryDx=0;entryDy=0;fontFamily=Courier New;fontSize=12;fillColor=#ffff88;strokeColor=#36393d;exitX=0;exitY=0.5;exitDx=0;exitDy=0;" edge="1" parent="1" source="v1Cm1RiDaVpm4p61wSiM-112" target="v1Cm1RiDaVpm4p61wSiM-115">
          <mxGeometry relative="1" as="geometry" />
        </mxCell>
        <mxCell id="v1Cm1RiDaVpm4p61wSiM-112" value="RtpReceiverProxyWithInternal&amp;lt;RtpReceiverInternal&amp;gt;" style="rounded=0;whiteSpace=wrap;html=1;fontFamily=Courier New;fontSize=12;align=center;verticalAlign=top;" vertex="1" parent="1">
          <mxGeometry x="1450" y="3029.5" width="365" height="220" as="geometry" />
        </mxCell>
        <mxCell id="v1Cm1RiDaVpm4p61wSiM-113" value="5.CreateReceiver&lt;br&gt;没有传入VideoTrack" style="text;html=1;strokeColor=#36393d;fillColor=#ffff88;align=center;verticalAlign=middle;whiteSpace=wrap;rounded=0;fontFamily=Courier New;fontSize=12;" vertex="1" parent="1">
          <mxGeometry x="1685" y="2772.5" width="160" height="47" as="geometry" />
        </mxCell>
        <mxCell id="v1Cm1RiDaVpm4p61wSiM-114" value="VideoRtpReceiver" style="rounded=0;whiteSpace=wrap;html=1;fontFamily=Courier New;fontSize=12;align=center;" vertex="1" parent="1">
          <mxGeometry x="1560.5" y="3089.5" width="120" height="60" as="geometry" />
        </mxCell>
        <mxCell id="v1Cm1RiDaVpm4p61wSiM-115" value="&lt;span&gt;RtpTransceiverProxyWithInternal&amp;lt;RtpTransceiver&amp;gt;&lt;/span&gt;" style="rounded=0;whiteSpace=wrap;html=1;fontFamily=Courier New;fontSize=12;align=center;verticalAlign=top;" vertex="1" parent="1">
          <mxGeometry x="600" y="3054.5" width="410" height="170" as="geometry" />
        </mxCell>
        <mxCell id="v1Cm1RiDaVpm4p61wSiM-116" style="edgeStyle=orthogonalEdgeStyle;shape=flexArrow;rounded=0;orthogonalLoop=1;jettySize=auto;html=1;entryX=0;entryY=0.5;entryDx=0;entryDy=0;fontFamily=Courier New;fontSize=12;fillColor=#ffff88;strokeColor=#36393d;exitX=0.5;exitY=0;exitDx=0;exitDy=0;" edge="1" parent="1" source="v1Cm1RiDaVpm4p61wSiM-117" target="v1Cm1RiDaVpm4p61wSiM-127">
          <mxGeometry relative="1" as="geometry">
            <Array as="points">
              <mxPoint x="835" y="2884.5" />
              <mxPoint x="1535" y="2884.5" />
              <mxPoint x="1535" y="2441.5" />
              <mxPoint x="1646" y="2441.5" />
            </Array>
          </mxGeometry>
        </mxCell>
        <mxCell id="v1Cm1RiDaVpm4p61wSiM-117" value="&lt;span&gt;RtpTransceiver&lt;/span&gt;" style="rounded=0;whiteSpace=wrap;html=1;fontFamily=Courier New;fontSize=12;align=center;verticalAlign=top;" vertex="1" parent="1">
          <mxGeometry x="720" y="3114.5" width="230" height="60" as="geometry" />
        </mxCell>
        <mxCell id="v1Cm1RiDaVpm4p61wSiM-144" style="edgeStyle=orthogonalEdgeStyle;rounded=0;orthogonalLoop=1;jettySize=auto;html=1;exitX=1;exitY=0.25;exitDx=0;exitDy=0;" edge="1" parent="1" source="v1Cm1RiDaVpm4p61wSiM-118" target="v1Cm1RiDaVpm4p61wSiM-143">
          <mxGeometry relative="1" as="geometry" />
        </mxCell>
        <mxCell id="v1Cm1RiDaVpm4p61wSiM-118" value="ChannelManager" style="rounded=0;whiteSpace=wrap;html=1;fontFamily=Courier New;fontSize=12;align=center;" vertex="1" parent="1">
          <mxGeometry x="1656" y="2351.5" width="130" height="40" as="geometry" />
        </mxCell>
        <mxCell id="v1Cm1RiDaVpm4p61wSiM-119" style="edgeStyle=orthogonalEdgeStyle;shape=flexArrow;rounded=0;orthogonalLoop=1;jettySize=auto;html=1;exitX=0;exitY=0.5;exitDx=0;exitDy=0;entryX=0.77;entryY=0.006;entryDx=0;entryDy=0;entryPerimeter=0;fontFamily=Courier New;fontSize=12;fillColor=#ffff88;strokeColor=#36393d;" edge="1" parent="1" source="v1Cm1RiDaVpm4p61wSiM-118" target="v1Cm1RiDaVpm4p61wSiM-115">
          <mxGeometry relative="1" as="geometry">
            <Array as="points">
              <mxPoint x="1610" y="2371.5" />
              <mxPoint x="1610" y="2949.5" />
              <mxPoint x="916" y="2949.5" />
            </Array>
          </mxGeometry>
        </mxCell>
        <mxCell id="v1Cm1RiDaVpm4p61wSiM-120" value="7.VideoRtpSender 传入RtpTranceiver，存在列表中&amp;nbsp;" style="text;html=1;strokeColor=#36393d;fillColor=#ffff88;align=center;verticalAlign=middle;whiteSpace=wrap;rounded=0;fontFamily=Courier New;fontSize=12;" vertex="1" parent="1">
          <mxGeometry x="1096" y="2799.5" width="180" height="40" as="geometry" />
        </mxCell>
        <mxCell id="v1Cm1RiDaVpm4p61wSiM-121" value="8.VideoRtpReceiver 传入RtpTranseiver，存在列表中&lt;br&gt;&amp;nbsp;" style="text;html=1;strokeColor=#36393d;fillColor=#ffff88;align=center;verticalAlign=middle;whiteSpace=wrap;rounded=0;fontFamily=Courier New;fontSize=12;" vertex="1" parent="1">
          <mxGeometry x="1170" y="3119.5" width="180" height="40" as="geometry" />
        </mxCell>
        <mxCell id="v1Cm1RiDaVpm4p61wSiM-122" value="6.CreateAndAddTransceiver" style="text;html=1;strokeColor=#36393d;fillColor=#ffff88;align=center;verticalAlign=middle;whiteSpace=wrap;rounded=0;fontFamily=Courier New;fontSize=12;" vertex="1" parent="1">
          <mxGeometry x="965" y="2994.5" width="190" height="20" as="geometry" />
        </mxCell>
        <mxCell id="v1Cm1RiDaVpm4p61wSiM-123" value="RTCRtpSender" style="rounded=0;whiteSpace=wrap;html=1;fontFamily=Courier New;fontSize=12;align=center;" vertex="1" parent="1">
          <mxGeometry x="1120" y="684.5" width="120" height="60" as="geometry" />
        </mxCell>
        <mxCell id="v1Cm1RiDaVpm4p61wSiM-124" value="10.返回VideoRtpSender" style="text;html=1;strokeColor=#36393d;fillColor=#ffff88;align=center;verticalAlign=middle;whiteSpace=wrap;rounded=0;fontFamily=Courier New;fontSize=12;" vertex="1" parent="1">
          <mxGeometry x="1100" y="2207.5" width="160" height="20" as="geometry" />
        </mxCell>
        <mxCell id="v1Cm1RiDaVpm4p61wSiM-126" value="9.add RtpTransceiver，&lt;br&gt;存在列表中" style="text;html=1;align=center;verticalAlign=middle;resizable=0;points=[];autosize=1;fontSize=12;fontFamily=Courier New;fillColor=#ffff88;strokeColor=#36393d;" vertex="1" parent="1">
          <mxGeometry x="691.6300000000001" y="2952.5" width="170" height="30" as="geometry" />
        </mxCell>
        <mxCell id="v1Cm1RiDaVpm4p61wSiM-127" value="&lt;span&gt;TransceiverList&lt;/span&gt;" style="rounded=0;whiteSpace=wrap;html=1;fontFamily=Courier New;fontSize=12;align=center;" vertex="1" parent="1">
          <mxGeometry x="1664" y="2424.5" width="150" height="35" as="geometry" />
        </mxCell>
        <mxCell id="v1Cm1RiDaVpm4p61wSiM-128" style="edgeStyle=orthogonalEdgeStyle;shape=flexArrow;rounded=0;orthogonalLoop=1;jettySize=auto;html=1;exitX=0.5;exitY=1;exitDx=0;exitDy=0;fontFamily=Courier New;fontSize=12;" edge="1" parent="1" source="v1Cm1RiDaVpm4p61wSiM-127" target="v1Cm1RiDaVpm4p61wSiM-127">
          <mxGeometry relative="1" as="geometry" />
        </mxCell>
        <mxCell id="v1Cm1RiDaVpm4p61wSiM-130" value="ChannelManager 是从RtpTransmissionManager 传入RtpTranseiver&amp;nbsp;" style="text;html=1;strokeColor=#36393d;fillColor=#ffff88;align=center;verticalAlign=middle;whiteSpace=wrap;rounded=0;fontFamily=Courier New;fontSize=12;" vertex="1" parent="1">
          <mxGeometry x="1276" y="2935.5" width="300" height="42" as="geometry" />
        </mxCell>
        <mxCell id="v1Cm1RiDaVpm4p61wSiM-131" value="VideoTrackSource" style="rounded=0;whiteSpace=wrap;html=1;fontFamily=Courier New;fontSize=12;align=left;" vertex="1" parent="1">
          <mxGeometry x="458.5" y="1167.69" width="120" height="21.63" as="geometry" />
        </mxCell>
        <mxCell id="v1Cm1RiDaVpm4p61wSiM-138" style="edgeStyle=orthogonalEdgeStyle;shape=flexArrow;rounded=0;orthogonalLoop=1;jettySize=auto;html=1;exitX=0.5;exitY=1;exitDx=0;exitDy=0;fontFamily=Courier New;fontSize=12;" edge="1" parent="1">
          <mxGeometry relative="1" as="geometry">
            <mxPoint x="40" y="1819.5" as="sourcePoint" />
            <mxPoint x="40" y="1819.5" as="targetPoint" />
          </mxGeometry>
        </mxCell>
        <mxCell id="v1Cm1RiDaVpm4p61wSiM-140" value="&lt;pre&gt;&lt;b&gt;RtpTransmissionManager &lt;br/&gt;是在 PeerCoonection.Init的时候创建&lt;/b&gt;&lt;/pre&gt;" style="text;html=1;align=center;verticalAlign=middle;resizable=0;points=[];autosize=1;fillColor=#fff2cc;strokeColor=#d6b656;" vertex="1" parent="1">
          <mxGeometry x="1977.5" y="1286" width="240" height="60" as="geometry" />
        </mxCell>
        <mxCell id="v1Cm1RiDaVpm4p61wSiM-143" value="ChannelManager 是在Context中创建" style="text;html=1;align=center;verticalAlign=middle;resizable=0;points=[];autosize=1;fillColor=#fff2cc;strokeColor=#d6b656;" vertex="1" parent="1">
          <mxGeometry x="1945" y="2351.5" width="210" height="20" as="geometry" />
        </mxCell>
        <mxCell id="v1Cm1RiDaVpm4p61wSiM-107" style="edgeStyle=orthogonalEdgeStyle;shape=flexArrow;rounded=0;orthogonalLoop=1;jettySize=auto;html=1;fontFamily=Courier New;fontSize=12;fillColor=#ffff88;strokeColor=#36393d;entryX=0.5;entryY=1;entryDx=0;entryDy=0;" edge="1" parent="1" source="v1Cm1RiDaVpm4p61wSiM-108" target="v1Cm1RiDaVpm4p61wSiM-123">
          <mxGeometry relative="1" as="geometry">
            <Array as="points" />
            <mxPoint x="1185" y="544.5" as="targetPoint" />
          </mxGeometry>
        </mxCell>
      </root>
    </mxGraphModel>
  </diagram>
</mxfile>
